#!OML:ASF H:\Swim 2\Project 1\Capture day 1\Session 1\male.ASF
:FULLY-SPECIFIED
:DEGREES
2350
root 7.6935 8.8675 12.4012 68.8697 2.26542 177.579
lowerback 36.2169 -4.10663 -1.59385
upperback -0.88012 0.0188038 14.9303
thorax -20.8786 2.63157 18.6982
lowerneck -1.81275 14.4916 -11.7133
upperneck 31.3165 21.3327 -10.5575
head 10.6968 4.03835 -0.683135
rclavicle -1.74931e-014 -1.25632e-013
rhumerus -46.4204 38.353 -74.8271
rradius 20.4319
rwrist -29.4282
rhand -12.6549 -24.9845
rfingers 7.12502
rthumb 13.4258 -54.5319
lclavicle -1.74931e-014 -1.25632e-013
lhumerus -1287.58 -152.81 1235.29
lradius 24.0096
lwrist 29.0288
lhand -1.4184 23.7969
lfingers 7.12502
lthumb 24.2311 412.286
rfemur 47.9816 8.5477 27.8003
rtibia 14.4066
rfoot 9.94537 -1.46706
rtoes 26.961
lfemur 24.9768 -2.93883 -28.0792
ltibia 29.6693
lfoot 12.9678 13.4389
ltoes 46.8971
2351
root 7.68803 8.87357 12.4102 69.0196 2.27035 177.629
lowerback 35.9854 -3.99792 -1.45777
upperback -0.885581 0.111026 14.806
thorax -20.7869 2.60159 18.3793
lowerneck -1.64413 14.308 -11.3811
upperneck 31.0581 21.011 -10.593
head 10.5879 4.03336 -0.758825
rclavicle 0 -1.35571e-013
rhumerus -44.3412 36.5869 -73.6353
rradius 19.9253
rwrist -28.7248
rhand -12.1874 -24.759
rfingers 7.12502
rthumb 13.8764 -54.276
lclavicle 0 -1.35571e-013
lhumerus -1289.03 -152.078 1237.45
lradius 24.1027
lwrist 29.2639
lhand -0.520736 23.8074
lfingers 7.12502
lthumb 25.0915 412.179
rfemur 48.0585 8.29367 27.434
rtibia 14.9121
rfoot 10.4059 -0.96169
rtoes 27.2641
lfemur 24.8388 -3.2389 -28.2027
ltibia 28.6371
lfoot 12.3631 15.4949
ltoes 43.7904
2352
root 7.68198 8.87855 12.4165 69.1467 2.27679 177.691
lowerback 35.7813 -3.88435 -1.31669
upperback -0.887776 0.215545 14.6834
thorax -20.707 2.57858 18.0565
lowerneck -1.53442 14.1004 -11.0886
upperneck 30.871 20.6801 -10.6117
head 10.5126 4.00521 -0.821714
rclavicle -9.54166e-015 1.36366e-013
rhumerus -42.5539 35.0295 -72.7433
rradius 19.5932
rwrist -28.4096
rhand -11.636 -24.562
rfingers 7.12502
rthumb 14.4078 -54.0419
lclavicle -9.54166e-015 1.36366e-013
lhumerus -1290.52 -151.31 1239.78
lradius 24.2517
lwrist 29.3985
lhand 0.325 23.703
lfingers 7.12502
lthumb 25.9016 411.959
rfemur 47.979 8.00601 27.035
rtibia 15.5341
rfoot 10.7863 -0.538386
rtoes 27.4949
lfemur 24.7832 -3.58078 -28.3808
ltibia 27.6296
lfoot 11.8903 17.7828
ltoes 40.3834
2353
root 7.67519 8.88238 12.4201 69.2645 2.2968 177.762
lowerback 35.5923 -3.77758 -1.16139
upperback -0.888115 0.322256 14.5643
thorax -20.6316 2.55759 17.7308
lowerneck -1.49951 13.8753 -10.8275
upperneck 30.7626 20.354 -10.6201
head 10.4785 3.9577 -0.873395
rclavicle -1.22451e-013 1.96399e-013
rhumerus -40.9972 33.7053 -72.1098
rradius 19.4165
rwrist -28.3963
rhand -10.9968 -24.395
rfingers 7.12502
rthumb 15.0236 -53.8299
lclavicle -1.22451e-013 1.96399e-013
lhumerus -1292.09 -150.482 1242.27
lradius 24.4902
lwrist 29.5255
lhand 1.16057 23.5836
lfingers 7.12502
lthumb 26.7015 411.72
rfemur 47.7523 7.68989 26.621
rtibia 16.2103
rfoot 11.0358 -0.222625
rtoes 27.7049
lfemur 24.7927 -3.97168 -28.6042
ltibia 26.6713
lfoot 11.4019 20.2368
ltoes 36.5308
2354
root 7.66759 8.88499 12.4212 69.3861 2.33198 177.839
lowerback 35.4104 -3.68716 -0.993742
upperback -0.887955 0.417988 14.4478
thorax -20.5542 2.5333 17.4081
lowerneck -1.57072 13.6409 -10.5821
upperneck 30.7559 20.0556 -10.6254
head 10.5033 3.89574 -0.915414
rclavicle -1.38354e-013 1.07741e-013
rhumerus -39.6143 32.6398 -71.7021
rradius 19.3732
rwrist -28.6122
rhand -10.2643 -24.2308
rfingers 7.12502
rthumb 15.7291 -53.6116
lclavicle -1.38354e-013 1.07741e-013
lhumerus -1293.74 -149.627 1244.91
lradius 24.8271
lwrist 29.6993
lhand 2.04478 23.5348
lfingers 7.12502
lthumb 27.5474 411.539
rfemur 47.3887 7.35024 26.1989
rtibia 16.8793
rfoot 11.1458 -0.0114169
rtoes 27.8481
lfemur 24.8444 -4.40161 -28.8656
ltibia 25.7911
lfoot 11.0562 22.868
ltoes 32.6289
2355
root 7.65921 8.88617 12.4196 69.5182 2.38382 177.922
lowerback 35.2328 -3.61955 -0.812577
upperback -0.888305 0.494029 14.3311
thorax -20.4717 2.50157 17.0884
lowerneck -1.70228 13.4104 -10.347
upperneck 30.7806 19.7817 -10.634
head 10.5517 3.83292 -0.953107
rclavicle 3.81667e-014 2.5842e-014
rhumerus -38.357 31.833 -71.4886
rradius 19.4414
rwrist -29.0061
rhand -9.44848 -24.0642
rfingers 7.12502
rthumb 16.5147 -53.3813
lclavicle 3.81667e-014 2.5842e-014
lhumerus -1295.49 -148.742 1247.67
lradius 25.2732
lwrist 30.0258
lhand 2.97543 23.6033
lfingers 7.12502
lthumb 28.4371 411.462
rfemur 46.9005 6.99233 25.7795
rtibia 17.4946
rfoot 11.0949 0.0909508
rtoes 27.8966
lfemur 24.922 -4.85528 -29.1545
ltibia 25.0153
lfoot 10.8323 25.5834
ltoes 28.8559
2356
root 7.65013 8.88595 12.4151 69.6613 2.45695 178.01
lowerback 35.0598 -3.57856 -0.61556
upperback -0.888976 0.547132 14.2148
thorax -20.3834 2.46112 16.7725
lowerneck -1.71459 13.2178 -10.1353
upperneck 30.641 19.508 -10.6588
head 10.5119 3.79526 -0.999568
rclavicle 1.54257e-013 -2.10712e-013
rhumerus -37.1828 31.2522 -71.4207
rradius 19.601
rwrist -29.5362
rhand -8.5473 -23.8805
rfingers 7.12502
rthumb 17.3822 -53.1233
lclavicle 1.54257e-013 -2.10712e-013
lhumerus -1297.33 -147.871 1250.53
lradius 25.823
lwrist 30.547
lhand 3.95312 23.8149
lfingers 7.12502
lthumb 29.3709 411.514
rfemur 46.3003 6.62311 25.382
rtibia 18.0274
rfoot 10.8849 0.0843133
rtoes 27.8536
lfemur 25.0159 -5.30834 -29.4512
ltibia 24.3671
lfoot 10.7142 28.2808
ltoes 25.4482
2357
root 7.64039 8.88425 12.4073 69.8062 2.54549 178.102
lowerback 34.8991 -3.55748 -0.405551
upperback -0.889218 0.583619 14.0971
thorax -20.2941 2.41444 16.4572
lowerneck -1.67808 13.0485 -9.94228
upperneck 30.4276 19.2441 -10.688
head 10.4324 3.77055 -1.04696
rclavicle 1.90833e-014 -6.16232e-014
rhumerus -36.0586 30.8465 -71.4501
rradius 19.8255
rwrist -30.1861
rhand -7.59117 -23.6917
rfingers 7.12502
rthumb 18.3022 -52.8506
lclavicle 1.90833e-014 -6.16232e-014
lhumerus -1299.27 -146.988 1253.52
lradius 26.4797
lwrist 31.3632
lhand 4.95065 24.1691
lfingers 7.12502
lthumb 30.3229 411.697
rfemur 45.6089 6.25876 25.0212
rtibia 18.466
rfoot 10.4855 -0.0541418
rtoes 27.8185
lfemur 25.1277 -5.73263 -29.7491
ltibia 23.8625
lfoot 10.7356 30.8522
ltoes 22.7377
2358
root 7.63029 8.88109 12.3962 69.9592 2.65586 178.193
lowerback 34.7417 -3.55782 -0.192198
upperback -0.886746 0.601243 13.9882
thorax -20.1982 2.36349 16.1617
lowerneck -1.56815 12.9092 -9.74849
upperneck 30.113 18.9953 -10.7457
head 10.3034 3.76427 -1.10702
rclavicle 1.145e-013 -1.34776e-013
rhumerus -34.9614 30.6214 -71.5457
rradius 20.1057
rwrist -30.9862
rhand -6.59814 -23.5292
rfingers 7.12502
rthumb 19.2573 -52.5958
lclavicle 1.145e-013 -1.34776e-013
lhumerus -1301.3 -146.139 1256.61
lradius 27.2367
lwrist 32.4803
lhand 5.90401 24.6447
lfingers 7.12502
lthumb 31.2319 412.002
rfemur 44.8207 5.90986 24.7195
rtibia 18.8189
rfoot 9.95836 -0.295288
rtoes 27.7192
lfemur 25.2433 -6.10884 -30.0246
ltibia 23.5115
lfoot 10.8033 33.1683
ltoes 20.5961
2359
root 7.61988 8.87668 12.3814 70.0978 2.77854 178.279
lowerback 34.6091 -3.57009 0.0151442
upperback -0.878526 0.608266 13.8861
thorax -20.1046 2.31238 15.886
lowerneck -1.51037 12.7793 -9.55669
upperneck 29.852 18.7793 -10.8004
head 10.2059 3.75801 -1.16154
rclavicle 1.11319e-014 4.55217e-014
rhumerus -33.8678 30.5121 -71.6619
rradius 20.4153
rwrist -31.9084
rhand -5.59374 -23.3687
rfingers 7.12502
rthumb 20.2229 -52.336
lclavicle 1.11319e-014 4.55217e-014
lhumerus -1303.42 -145.348 1259.8
lradius 28.0845
lwrist 33.8922
lhand 6.77492 25.2233
lfingers 7.12502
lthumb 32.0614 412.417
rfemur 43.9616 5.59017 24.482
rtibia 19.1063
rfoot 9.2582 -0.662328
rtoes 27.7416
lfemur 25.3846 -6.40892 -30.2777
ltibia 23.3175
lfoot 10.8892 35.083
ltoes 19.1393
2360
root 7.60942 8.8712 12.3647 70.2641 2.93285 178.353
lowerback 34.4522 -3.59595 0.240879
upperback -0.872121 0.610552 13.7981
thorax -20.0021 2.26089 15.6195
lowerneck -1.56496 12.6439 -9.34697
upperneck 29.7079 18.5993 -10.8555
head 10.1776 3.74398 -1.21145
rclavicle -1.24042e-013 4.29375e-014
rhumerus -32.7668 30.4875 -71.7761
rradius 20.7502
rwrist -32.9428
rhand -4.62783 -23.2477
rfingers 7.12502
rthumb 21.151 -52.1139
lclavicle -1.24042e-013 4.29375e-014
lhumerus -1305.61 -144.604 1263.09
lradius 29.0094
lwrist 35.6129
lhand 7.51725 25.8824
lfingers 7.12502
lthumb 32.7679 412.931
rfemur 42.981 5.30704 24.3328
rtibia 19.3572
rfoot 8.57194 -1.04007
rtoes 27.4015
lfemur 25.5027 -6.62926 -30.4672
ltibia 23.2762
lfoot 10.9932 36.4759
ltoes 18.374
2361
root 7.5991 8.86495 12.3465 70.4605 3.12476 178.412
lowerback 34.2651 -3.63398 0.495005
upperback -0.868849 0.612229 13.7232
thorax -19.8905 2.2091 15.3526
lowerneck -1.77165 12.4907 -9.09819
upperneck 29.7201 18.454 -10.9294
head 10.2451 3.7145 -1.26481
rclavicle 6.36111e-015 -3.00165e-014
rhumerus -31.652 30.5084 -71.8744
rradius 21.1064
rwrist -34.0422
rhand -3.74217 -23.1785
rfingers 7.12502
rthumb 22.0015 -51.9472
lclavicle 6.36111e-015 -3.00165e-014
lhumerus -1307.89 -143.849 1266.49
lradius 30.0078
lwrist 37.6555
lhand 8.09325 26.5978
lfingers 7.12502
lthumb 33.3157 413.531
rfemur 41.8751 5.06518 24.2808
rtibia 19.6011
rfoot 7.91731 -1.42595
rtoes 26.7917
lfemur 25.6005 -6.76459 -30.5783
ltibia 23.3756
lfoot 11.0176 37.2255
ltoes 17.9966
2362
root 7.58905 8.85828 12.3272 70.6771 3.34125 178.457
lowerback 34.0549 -3.67706 0.770957
upperback -0.868939 0.615761 13.6539
thorax -19.773 2.15711 15.0791
lowerneck -2.06922 12.323 -8.80876
upperneck 29.8212 18.3229 -11.0221
head 10.3705 3.67588 -1.32635
rclavicle 1.43125e-014 7.59357e-014
rhumerus -30.5269 30.549 -71.954
rradius 21.4841
rwrist -35.1504
rhand -2.96591 -23.1513
rfingers 7.12502
rthumb 22.7467 -51.8304
lclavicle 1.43125e-014 7.59357e-014
lhumerus -1310.22 -143.078 1270.01
lradius 31.0702
lwrist 39.9399
lhand 8.51314 27.3506
lfingers 7.12502
lthumb 33.7148 414.197
rfemur 40.6579 4.86893 24.3108
rtibia 19.8613
rfoot 7.31605 -1.81151
rtoes 26.0284
lfemur 25.6968 -6.81724 -30.6268
ltibia 23.595
lfoot 11.1018 37.3665
ltoes 18.5915
